HIERARCHY
ROOT Hips
{
	OFFSET 0.00000 0.00000 0.00000
	CHANNELS 6 Xposition Yposition Zposition Zrotation Yrotation Xrotation 
	JOINT LHipJoint
	{
		OFFSET 0 0 0
		CHANNELS 3 Zrotation Yrotation Xrotation
		JOINT LeftHip
		{
			OFFSET 1.88772 -1.62769 0.85636
			CHANNELS 3 Zrotation Yrotation Xrotation
			JOINT LeftKnee
			{
				OFFSET 2.39836 -6.58946 0.00000
				CHANNELS 3 Zrotation Yrotation Xrotation
				JOINT LeftAnkle
				{
					OFFSET 2.78523 -7.65237 0.00000
					CHANNELS 3 Zrotation Yrotation Xrotation
					JOINT LeftToe
					{
						OFFSET 0.19551 -0.53715 1.90694
						CHANNELS 3 Zrotation Yrotation Xrotation
						End Site
						{
							OFFSET 0.00000 -0.00000 0.99735
						}
					}
				}
			}
		}
	}
	JOINT RHipJoint
	{
		OFFSET 0 0 0
		CHANNELS 3 Zrotation Yrotation Xrotation
		JOINT RightHip
		{
			OFFSET -1.74282 -1.62769 0.85636
			CHANNELS 3 Zrotation Yrotation Xrotation
			JOINT RightKnee
			{
				OFFSET -2.36062 -6.48575 0.00000
				CHANNELS 3 Zrotation Yrotation Xrotation
				JOINT RightAnkle
				{
					OFFSET -2.76258 -7.59014 0.00000
					CHANNELS 3 Zrotation Yrotation Xrotation
					JOINT RightToe
					{
						OFFSET -0.19308 -0.53048 2.03952
						CHANNELS 3 Zrotation Yrotation Xrotation
						End Site
						{
							OFFSET -0.00000 -0.00000 1.06031
						}
					}
				}
			}
		}
	}
	JOINT lowerback
	{
		OFFSET 0 0 0
		CHANNELS 3 Zrotation Yrotation Xrotation
		JOINT Chest
		{
			OFFSET -0.08299 2.03160 -0.30721
			CHANNELS 3 Zrotation Yrotation Xrotation
			JOINT Chest2
			{
				OFFSET -0.01030 2.00603 0.13891
				CHANNELS 3 Zrotation Yrotation Xrotation
				JOINT lowerneck
				{
					OFFSET 0 0 0
					CHANNELS 3 Zrotation Yrotation Xrotation
					JOINT Neck
					{
						OFFSET 0.04282 1.69578 0.19991
						CHANNELS 3 Zrotation Yrotation Xrotation
						JOINT Head
						{
							OFFSET -0.08665 1.66622 -0.03785
							CHANNELS 3 Zrotation Yrotation Xrotation
							End Site
							{
								OFFSET -0.03699 1.83329 -0.04094
							}
						}
					}
				}
				JOINT LeftCollar
				{
					OFFSET 0 0 0
					CHANNELS 3 Zrotation Yrotation Xrotation
					JOINT LeftShoulder
					{
						OFFSET 3.04219 1.50803 -0.05347
CHANNELS 3 Zrotation Xrotation Yrotation
						JOINT LeftElbow
						{
OFFSET 0 -5.791990 0.000000
CHANNELS 3 Zrotation Xrotation Yrotation
							JOINT LeftWrist
							{
OFFSET 0 -3.499080 0.000000
CHANNELS 3 Zrotation Xrotation Yrotation
								JOINT lhand
								{
									OFFSET 0 0 0
CHANNELS 3 Zrotation Xrotation Yrotation
									JOINT LFingers
									{
OFFSET 0 -0.593860 0.000000
CHANNELS 3 Zrotation Xrotation Yrotation
										End Site
										{
OFFSET 0 -0.478790 0.000000
										}
									}
								}
								JOINT LThumb
								{
OFFSET 0 0.000000 0.000000
CHANNELS 3 Zrotation Xrotation Yrotation
									End Site
									{
OFFSET 0 -0.486100 0.486100
									}
								}
							}
						}
					}
				}
				JOINT RightCollar
				{
					OFFSET 0 0 0
					CHANNELS 3 Zrotation Yrotation Xrotation
					JOINT RightShoulder
					{
						OFFSET -3.30316 1.18853 0.11175
CHANNELS 3 Zrotation Xrotation Yrotation
						JOINT RightElbow
						{
OFFSET 0 -5.737990 0.000000
CHANNELS 3 Zrotation Xrotation Yrotation
							JOINT RightWrist
							{
OFFSET 0 -3.579160 -0.000000
CHANNELS 3 Zrotation Xrotation Yrotation
								JOINT rhand
								{
									OFFSET 0 0 0
CHANNELS 3 Zrotation Xrotation Yrotation
									JOINT RFingers
									{
OFFSET 0 -0.615580 0.000000
CHANNELS 3 Zrotation Xrotation Yrotation
										End Site
										{
OFFSET 0 -0.496290 0.000000
										}
									}
								}
								JOINT RThumb
								{
OFFSET 0 0.000000 0.000000
CHANNELS 3 Zrotation Xrotation Yrotation
									End Site
									{
OFFSET 0 -0.503870 0.503870
									}
								}
							}
						}
					}
				}
			}
		}
	}
}
MOTION
Frames: 6
Frame Time: 0.008333333333333333
10.835844 17.202481 -14.415545 8.527644 -45.460913 -0.265759 0.000000 0.000000 0.000000 -11.900414 -5.590380 -22.165926 3.693154 11.740097 34.819236 0.417525 6.323396 -16.152169 0.290178 -3.450462 -9.536780 0.000000 0.000000 0.000000 12.686992 9.879267 -24.215712 -3.819099 -11.915695 35.434437 -0.541387 -11.050868 -21.972872 -0.083381 -1.861908 5.124161 -5.355797 0.005623 6.212857 -1.042680 -0.525253 -2.408312 1.977466 -0.079915 -5.975862 2.952302 1.216469 -3.408176 -4.844367 1.608897 1.670026 -1.999499 0.748593 1.175678 0.000000 0.000000 0.000000 18.302089 -11.805837 -43.611452 152.583382 -38.573134 110.242047 18.540295 -54.625207 31.693015 0.000000 0.000000 0.000000 -7.125000 0.000000 0.000000 -7.407474 -2.848753 -7.831068 0.000000 0.000000 0.000000 -11.547719 -33.061528 50.592254 -153.421285 -37.774474 -110.760094 -10.282320 -32.035485 14.737286 0.000000 0.000000 0.000000 7.125000 0.000000 0.000000 15.857819 44.351478 0.260416
11.103978 17.217253 -14.617197 7.754530 -44.479653 0.717622 0.000000 0.000000 0.000000 -13.348668 -2.389080 -19.777387 4.884284 13.252241 40.320218 0.651088 -0.108777 -15.212582 0.129098 -2.240210 -6.173925 0.000000 0.000000 0.000000 12.671446 11.718099 -24.186403 -3.498045 -11.460687 33.849807 -0.287965 -12.961950 -21.610604 -0.202477 -2.897253 7.992776 -5.104698 -0.194155 6.061978 -0.932809 -0.782699 -3.078330 1.980163 -0.189645 -6.580912 2.765897 0.896573 -2.968656 -5.505742 1.162022 0.490540 -2.187373 0.529428 0.713896 0.000000 0.000000 0.000000 17.836422 -2.614664 -44.923103 145.660812 -44.333524 105.650169 18.943494 -56.008135 30.654372 0.000000 0.000000 0.000000 -7.125000 0.000000 0.000000 -7.050665 -1.877106 -7.332848 0.000000 0.000000 0.000000 -13.882567 -26.389218 50.665360 -153.726487 -37.477371 -110.946350 -12.202951 -30.361341 14.268647 0.000000 0.000000 0.000000 7.125000 0.000000 0.000000 14.011844 44.099818 0.310528
11.474615 17.259731 -14.672488 6.986357 -43.880175 1.143235 0.000000 0.000000 0.000000 -14.114470 -1.681614 -14.906215 4.649995 12.978132 39.287225 0.783345 2.154851 -17.636813 0.972128 -6.268758 -17.568867 0.000000 0.000000 0.000000 12.146895 12.467248 -23.704918 -3.147749 -10.930464 32.045753 -0.070063 -14.201347 -20.938600 -0.218317 -3.006086 8.295743 -4.675593 -0.279291 5.343115 -0.856089 -0.808578 -3.037215 1.815632 -0.230091 -6.122875 2.102406 0.647332 -3.782288 -5.352790 0.841396 0.490634 -2.023803 0.356462 0.833074 0.000000 0.000000 0.000000 16.707487 5.086143 -46.906072 128.664633 -53.508984 92.752880 21.574395 -49.897933 29.502635 0.000000 0.000000 0.000000 -7.125000 0.000000 0.000000 -5.388049 -1.216526 -5.525281 0.000000 0.000000 0.000000 -15.735730 -18.033989 52.402721 -151.774870 -39.322506 -109.733853 -11.344770 -29.181072 14.421081 0.000000 0.000000 0.000000 7.125000 0.000000 0.000000 14.816936 44.162023 0.313547
12.018175 17.209236 -14.654652 7.292187 -43.832984 0.767865 0.000000 0.000000 0.000000 -16.153306 -5.631560 -8.202041 3.189676 10.995420 32.265066 0.984639 1.805726 -19.477991 1.381300 -7.436226 -21.014597 0.000000 0.000000 0.000000 9.892507 13.624005 -24.900157 -3.246751 -11.084196 32.564351 -0.014351 -14.397787 -20.608107 -0.584151 -4.884562 13.581358 -5.222512 -0.522682 5.525188 -0.940677 -1.196787 -3.053091 2.076396 -0.398774 -6.213652 2.199580 0.668535 -4.546372 -5.432138 0.856399 0.456037 -2.068157 0.352254 0.956729 0.000000 0.000000 0.000000 15.065220 10.089699 -45.911347 95.034772 -59.896899 64.358512 22.953612 -32.470774 32.482962 0.000000 0.000000 0.000000 -7.125000 0.000000 0.000000 -5.034292 -4.560670 -5.438946 0.000000 0.000000 0.000000 -16.647864 -7.118310 56.230783 -147.403545 -43.016851 -106.853871 -8.696057 -28.597572 15.601242 0.000000 0.000000 0.000000 7.125000 0.000000 0.000000 17.549247 44.999218 0.000946
12.722011 17.180717 -14.628989 7.687625 -43.408300 1.150436 0.000000 0.000000 0.000000 -18.207050 -4.769681 -7.782319 2.299726 9.464189 27.258452 1.275064 1.007854 -21.727307 2.002397 -8.870925 -25.392523 0.000000 0.000000 0.000000 6.870812 14.693195 -26.816600 -3.179995 -10.980848 32.215395 0.241785 -15.741603 -19.709881 -0.745104 -5.513911 15.380299 -6.076085 -0.567560 5.812124 -0.963414 -1.357106 -3.163908 2.552962 -0.433107 -6.473352 2.476251 0.360190 -5.021332 -5.852734 0.409334 0.034107 -2.266197 0.119961 0.892697 0.000000 0.000000 0.000000 14.513109 10.929245 -47.217047 59.387476 -56.138722 33.833270 21.821064 -26.132279 31.213838 0.000000 0.000000 0.000000 -7.125000 0.000000 0.000000 -5.481443 -3.018446 -5.788579 0.000000 0.000000 0.000000 -17.308939 3.107126 58.168293 -137.295530 -49.591202 -99.524012 -9.622122 -25.695591 17.723233 0.000000 0.000000 0.000000 7.125000 0.000000 0.000000 17.480998 47.149449 -0.957612
13.528461 17.198551 -14.602725 8.460169 -43.995017 1.113418 0.000000 0.000000 0.000000 -21.170895 -4.473854 -10.086863 2.207277 9.284999 26.691059 1.565794 0.863801 -23.987636 0.491309 -4.439325 -12.324641 0.000000 0.000000 0.000000 3.098525 19.428555 -26.656706 -2.814356 -10.388233 30.243408 -0.223952 -15.722754 -24.396615 -0.974429 -6.283588 17.609705 -6.496393 -0.627734 6.251159 -1.290867 -1.515006 -2.842164 2.468133 -0.510478 -6.371545 2.144984 0.320685 -5.375197 -5.573359 0.320793 -0.948101 -2.111794 0.082657 0.635224 0.000000 0.000000 0.000000 13.847035 10.417747 -45.625871 40.375916 -48.286380 18.720771 18.320632 -23.730171 29.326872 0.000000 0.000000 0.000000 -7.125000 0.000000 0.000000 -7.258335 -0.420663 -7.369916 0.000000 0.000000 0.000000 -15.703248 10.116670 56.688865 -119.285815 -56.489938 -85.062476 -9.719194 -20.168235 17.369293 0.000000 0.000000 0.000000 7.125000 0.000000 0.000000 17.260147 46.825224 -0.801359
